<svg width="24" height="24" viewBox="0 0 24 24" fill="none" xmlns="http://www.w3.org/2000/svg">
<path d="M11.9857 0C13.6487 0 15.2067 0.315412 16.6595 0.946237C18.1123 1.57706 19.3835 2.4325 20.4731 3.51254C21.5627 4.59259 22.4229 5.85902 23.0538 7.31183C23.6846 8.76464 24 10.3226 24 11.9857C24 13.6487 23.6846 15.2067 23.0538 16.6595C22.4229 18.1123 21.5627 19.3835 20.4731 20.4731C19.3835 21.5627 18.1123 22.4229 16.6595 23.0538C15.2067 23.6846 13.6487 24 11.9857 24C10.3226 24 8.76464 23.6846 7.31183 23.0538C5.85902 22.4229 4.59259 21.5627 3.51254 20.4731C2.4325 19.3835 1.57706 18.1123 0.946237 16.6595C0.315412 15.2067 0 13.6487 0 11.9857C0 10.3226 0.315412 8.76464 0.946237 7.31183C1.57706 5.85902 2.4325 4.59259 3.51254 3.51254C4.59259 2.4325 5.85902 1.57706 7.31183 0.946237C8.76464 0.315412 10.3226 0 11.9857 0ZM17.9498 9.40502C18.5042 8.98447 18.9916 8.4779 19.4122 7.8853C19.1446 8 18.8722 8.09558 18.595 8.17204C18.3178 8.24851 18.0263 8.30585 17.7204 8.34409C18.0263 8.15293 18.2939 7.91876 18.5233 7.64158C18.7527 7.3644 18.9152 7.06332 19.0108 6.73835C18.724 6.89128 18.4277 7.02987 18.1219 7.15412C17.816 7.27838 17.5006 7.36918 17.1756 7.42652C16.908 7.1589 16.5926 6.93907 16.2294 6.76702C15.8662 6.59498 15.4648 6.50896 15.0251 6.50896C14.6237 6.50896 14.2461 6.58542 13.8925 6.73835C13.5388 6.89128 13.233 7.10155 12.9749 7.36918C12.7168 7.6368 12.5113 7.94743 12.3584 8.30107C12.2055 8.65472 12.129 9.03226 12.129 9.43369C12.129 9.54839 12.1338 9.66308 12.1434 9.77778C12.1529 9.89247 12.1673 9.99761 12.1864 10.0932C10.9821 10.0358 9.8638 9.73955 8.83154 9.2043C7.79928 8.66906 6.91995 7.95221 6.19355 7.05376C5.92593 7.49343 5.79211 7.98088 5.79211 8.51613C5.79211 9.01314 5.91159 9.4767 6.15054 9.90681C6.38949 10.3369 6.70012 10.6858 7.08244 10.9534C6.58542 10.9152 6.14576 10.7909 5.76344 10.5806V10.6093C5.76344 11.3357 5.98805 11.9618 6.43728 12.4875C6.8865 13.0131 7.44564 13.3429 8.1147 13.4767C7.98088 13.5149 7.85185 13.5436 7.7276 13.5627C7.60335 13.5818 7.47431 13.5914 7.3405 13.5914C7.24492 13.5914 7.15412 13.5866 7.0681 13.5771C6.98208 13.5675 6.89128 13.5532 6.7957 13.534C6.98686 14.1075 7.32616 14.5854 7.81362 14.9677C8.30107 15.3501 8.86977 15.5412 9.51971 15.5412C9.0227 15.9427 8.46356 16.2533 7.84229 16.4731C7.22103 16.693 6.57587 16.8029 5.90681 16.8029C5.773 16.8029 5.64875 16.7981 5.53405 16.7885C5.41935 16.779 5.30466 16.7646 5.18996 16.7455C5.8399 17.1661 6.54241 17.491 7.29749 17.7204C8.05257 17.9498 8.8411 18.0645 9.66308 18.0645C11.0012 18.0645 12.1864 17.8112 13.2186 17.3047C14.2509 16.7981 15.1159 16.1481 15.8136 15.3548C16.5114 14.5615 17.0418 13.6726 17.405 12.6882C17.7682 11.7037 17.9498 10.7336 17.9498 9.77778V9.40502Z" fill="#333333"/>
</svg>
