<svg width="24" height="24" viewBox="0 0 24 24" fill="none" xmlns="http://www.w3.org/2000/svg">
<path d="M11.6563 8.84964C11.6563 9.46062 11.5227 9.94749 11.2554 10.3103C10.9881 10.673 10.5585 10.8544 9.96659 10.8544C9.56563 10.8544 9.20764 10.7351 8.8926 10.4964C8.57757 10.2578 8.31504 9.96181 8.10501 9.60859C7.89499 9.25537 7.7327 8.87351 7.61814 8.46301C7.50358 8.05251 7.4463 7.67542 7.4463 7.33174C7.4463 6.77804 7.59905 6.27208 7.90453 5.81384C8.22912 5.39379 8.66826 5.18377 9.22196 5.18377C9.62291 5.18377 9.98568 5.30788 10.3103 5.55609C10.6348 5.8043 10.8831 6.11933 11.0549 6.50119C11.2458 6.88305 11.3938 7.27924 11.4988 7.68974C11.6038 8.10024 11.6563 8.48687 11.6563 8.84964ZM12.4582 15.6945C12.5155 15.7518 12.5632 15.8568 12.6014 16.0095C12.6969 16.2005 12.7446 16.4296 12.7446 16.6969C12.7446 17.0979 12.6587 17.432 12.4869 17.6993C12.315 17.9666 12.0907 18.1814 11.8138 18.3437C11.537 18.506 11.2315 18.6253 10.8974 18.7017C10.5632 18.778 10.2243 18.8162 9.88067 18.8162C9.07876 18.8162 8.32458 18.6348 7.61814 18.2721C7.27446 18.0811 6.99761 17.8282 6.78759 17.5131C6.57757 17.1981 6.47255 16.8305 6.47255 16.4105C6.47255 15.8377 6.63962 15.389 6.97375 15.0644C7.30788 14.7399 7.72315 14.5012 8.21957 14.3484C8.56325 14.2339 8.8926 14.1527 9.20764 14.105C9.52267 14.0573 9.84248 14.0334 10.1671 14.0334C10.2625 14.0334 10.3484 14.0382 10.4248 14.0477C10.5012 14.0573 10.568 14.0621 10.6253 14.0621L10.8831 14.2625C10.9785 14.3007 11.0453 14.3389 11.0835 14.3771C11.1217 14.4153 11.1599 14.4439 11.1981 14.463L11.4845 14.6635C11.5609 14.7208 11.6181 14.7685 11.6563 14.8067L11.7709 14.9212C11.8091 14.9403 11.895 15.0167 12.0286 15.1504C12.1241 15.2458 12.2005 15.3317 12.2578 15.4081C12.315 15.4845 12.3819 15.58 12.4582 15.6945ZM12 0C13.6611 0 15.2172 0.315036 16.6683 0.945107C18.1193 1.57518 19.389 2.42959 20.4773 3.50835C21.5656 4.58711 22.4248 5.8568 23.0549 7.31742C23.685 8.77804 24 10.3389 24 12C24 13.6611 23.685 15.2172 23.0549 16.6683C22.4248 18.1193 21.5656 19.389 20.4773 20.4773C19.389 21.5656 18.1193 22.4248 16.6683 23.0549C15.2172 23.685 13.6611 24 12 24C10.3389 24 8.78282 23.685 7.33174 23.0549C5.88067 22.4248 4.61098 21.5656 3.52267 20.4773C2.43437 19.389 1.57518 18.1193 0.945107 16.6683C0.315036 15.2172 0 13.6611 0 12C0 10.3389 0.315036 8.77804 0.945107 7.31742C1.57518 5.8568 2.43437 4.58711 3.52267 3.50835C4.61098 2.42959 5.88067 1.57518 7.33174 0.945107C8.78282 0.315036 10.3389 0 12 0ZM12.7446 18.4726C13.6038 17.7279 14.0334 16.8783 14.0334 15.9236C14.0334 15.2936 13.8902 14.7733 13.6038 14.3628C13.3174 13.9523 13.0024 13.599 12.6587 13.3031C12.315 13.0072 12 12.7446 11.7136 12.5155C11.4272 12.2864 11.284 12.0286 11.284 11.7422C11.284 11.3986 11.432 11.0979 11.7279 10.8401C12.0239 10.5823 12.315 10.2912 12.6014 9.96659C12.8115 9.75656 12.9881 9.47971 13.1313 9.13604C13.2745 8.79236 13.3461 8.39141 13.3461 7.93317C13.3461 7.45585 13.222 6.94988 12.9737 6.41527C12.7446 5.91885 12.4105 5.53699 11.9714 5.26969H13.2029L14.4344 4.5537H10.4535C9.89976 4.5537 9.33652 4.61098 8.76372 4.72554C7.92363 4.91647 7.21718 5.34606 6.64439 6.01432C6.0716 6.68258 5.7852 7.43675 5.7852 8.27685C5.7852 9.19332 6.10024 9.93795 6.73031 10.5107C7.37948 11.1026 8.15274 11.3986 9.05012 11.3986H9.35084L9.70883 11.3699C9.68974 11.4081 9.66587 11.4702 9.63723 11.5561L9.56563 11.7709C9.52745 11.8282 9.50835 11.9523 9.50835 12.1432C9.50835 12.5823 9.69928 13.031 10.0811 13.4893C9.16468 13.5084 8.23866 13.6611 7.3031 13.9475C6.80668 14.1002 6.36754 14.3198 5.98568 14.6062C5.60382 14.8926 5.31742 15.2267 5.12649 15.6086C4.89737 16.0477 4.78282 16.4582 4.78282 16.8401C4.78282 17.3556 4.91647 17.7948 5.18377 18.1575C5.45107 18.5203 5.79475 18.8162 6.2148 19.0453C6.63484 19.2745 7.08353 19.4368 7.56086 19.5322C8.03819 19.6277 8.49642 19.6754 8.93556 19.6754C10.5585 19.6754 11.8282 19.2745 12.7446 18.4726ZM19.9045 6.87351H17.5847V4.5537H16.4105V6.87351H14.0907V8.01909H16.4105V10.3675H17.5847V8.01909H19.9045V6.87351Z" fill="#333333"/>
</svg>
