<svg width="24" height="24" viewBox="0 0 24 24" fill="none" xmlns="http://www.w3.org/2000/svg">
<path d="M12 0C13.6571 0 15.2143 0.314286 16.6714 0.942857C18.1286 1.57143 19.4 2.42857 20.4857 3.51429C21.5714 4.6 22.4286 5.87143 23.0571 7.32857C23.6857 8.78571 24 10.3429 24 12C24 13.6571 23.6857 15.2143 23.0571 16.6714C22.4286 18.1286 21.5714 19.4 20.4857 20.4857C19.4 21.5714 18.1286 22.4286 16.6714 23.0571C15.2143 23.6857 13.6571 24 12 24C10.3429 24 8.78571 23.6857 7.32857 23.0571C5.87143 22.4286 4.6 21.5714 3.51429 20.4857C2.42857 19.4 1.57143 18.1286 0.942857 16.6714C0.314286 15.2143 0 13.6571 0 12C0 10.3429 0.314286 8.78571 0.942857 7.32857C1.57143 5.87143 2.42857 4.6 3.51429 3.51429C4.6 2.42857 5.87143 1.57143 7.32857 0.942857C8.78571 0.314286 10.3429 0 12 0ZM5.25714 15.1143L8.85714 12.5429L5.25714 9.97143V15.1143ZM18.7429 16.2571L14.3429 13.1143L12 14.8L9.62857 13.1143L5.25714 16.2571V18H18.7429V16.2571ZM18.7429 9.97143L15.1429 12.5429L18.7429 15.1143V9.97143ZM18.7429 6H5.25714V7.74286L12 12.5429L18.7429 7.74286V6Z" fill="#333333"/>
</svg>
